<?xml version="1.0" encoding="utf-8"?>
<!-- Generator: Adobe Illustrator 17.1.0, SVG Export Plug-In . SVG Version: 6.00 Build 0)  -->
<!DOCTYPE svg PUBLIC "-//W3C//DTD SVG 1.1//EN" "http://www.w3.org/Graphics/SVG/1.1/DTD/svg11.dtd">
<svg version="1.1" id="Layer_1" xmlns="http://www.w3.org/2000/svg" xmlns:xlink="http://www.w3.org/1999/xlink" x="0px" y="0px"
   viewBox="0 0 535.793 300.085" enable-background="new 0 0 535.793 300.085" xml:space="preserve">
<g>
  <path fill="#D6A64F" d="M170.435,100c-4.09-2.56-8.35-4.74-12.87-6.58c-10.18-32.96-30.42-45.51-48.06-50.21
    c3.11-4.45,4.93-9.86,4.93-15.71c0-15.19-12.31-27.5-27.5-27.5s-27.5,12.31-27.5,27.5c0,5.85,1.82,11.26,4.93,15.71
    c-17.64,4.69-37.87,17.25-48.06,50.21c-4.52,1.84-8.78,4.02-12.87,6.58c-3.75,3.75-6.5,56.5,3.29,56.5
    c0.18-0.9,0.39-1.77,0.64-2.61c-0.32,5.54-0.53,11.091-0.64,16.61c-0.91,45.85,5.03,89.08,14.21,102c13.5,19,40,18.5,66,18.5
    s52.5,0.5,66-18.5c9.18-12.92,15.12-56.15,14.21-102c-0.11-5.52-0.32-11.07-0.64-16.61c0.25,0.841,0.46,1.71,0.64,2.61
    C176.935,156.5,174.185,103.75,170.435,100z"/>
  <g>
    <path fill="#D0A24D" d="M86.575,281.55c-52.08,0-66.19-16.39-74.46-35.189c2.34,12.04,5.35,21.26,8.82,26.14
      c13.5,19,40,18.5,66,18.5s52.5,0.5,66-18.5c3.47-4.89,6.48-14.1,8.83-26.15h-0.01C154.135,263.49,138.675,281.55,86.575,281.55z"
      />
    <path fill="#D0A24D" d="M170.435,100c-4.09-2.56-8.35-4.74-12.87-6.58c-10.18-32.96-30.42-45.51-48.06-50.21
      c3.11-4.45,4.93-9.86,4.93-15.71c0-15.19-12.31-27.5-27.5-27.5s-27.5,12.31-27.5,27.5c0,5.85,1.82,11.26,4.93,15.71
      c-17.64,4.69-37.87,17.25-48.06,50.21c-4.52,1.84-8.78,4.02-12.87,6.58c-3.75,3.75-6.5,56.5,3.29,56.5
      c0.18-0.9,0.39-1.77,0.64-2.61c-0.32,5.54-0.53,11.091-0.64,16.61c-0.03,1.78-0.06,3.55-0.07,5.32
      c23.08,23.08,106.81,31.71,159.85,1.39h0.72c-0.01-2.229-0.04-4.47-0.08-6.71c-0.11-5.52-0.32-11.07-0.64-16.61
      c0.25,0.841,0.46,1.71,0.64,2.61C176.935,156.5,174.185,103.75,170.435,100z"/>
  </g>
  <path fill="#DBCB89" d="M166.505,153.89c-2.45-8.43-8.11-14.1-15.53-17.89c-5.25-2.7-11.39-4.46-17.91-5.6
    c-4.65-0.81-9.49-1.31-14.33-1.6c-6.15-0.38-12.31-0.44-18.08-0.41c-4.93,0.02-9.58,0.11-13.72,0.11s-8.79-0.09-13.72-0.11
    c-5.77-0.03-11.93,0.03-18.08,0.41c-4.84,0.29-9.68,0.79-14.33,1.6c-6.52,1.14-12.66,2.9-17.91,5.6
    c-7.42,3.79-13.08,9.46-15.53,17.89c-0.32,5.54-0.53,11.091-0.64,16.61c11.77,7.99,47.71,17.5,80.21,17.5s68.44-9.51,80.21-17.5
    C167.035,164.98,166.825,159.43,166.505,153.89z"/>
  <path fill="#9CD6C4" d="M170.435,100c-4.09-2.56-8.35-4.74-12.87-6.58c-10.18-32.96-30.42-45.51-48.06-50.21
    c3.11-4.45,4.93-9.86,4.93-15.71c0-15.19-12.31-27.5-27.5-27.5s-27.5,12.31-27.5,27.5c0,5.85,1.82,11.26,4.93,15.71
    c-17.64,4.69-37.87,17.25-48.06,50.21c-4.52,1.84-8.78,4.02-12.87,6.58c-3.75,3.75-6.5,56.5,3.29,56.5
    c0.18-0.9,0.39-1.77,0.64-2.61c2.45-8.43,8.11-14.1,15.53-17.89c5.25-2.7,11.39-4.46,17.91-5.6c4.65-0.81,9.49-1.31,14.33-1.6
    c6.15-0.38,12.31-0.44,18.08-0.41c4.93,0.02,9.58,0.11,13.72,0.11s8.79-0.09,13.72-0.11c5.77-0.03,11.93,0.03,18.08,0.41
    c4.84,0.29,9.68,0.79,14.33,1.6c6.52,1.14,12.66,2.9,17.91,5.6c7.42,3.79,13.08,9.46,15.53,17.89c0.25,0.841,0.46,1.71,0.64,2.61
    C176.935,156.5,174.185,103.75,170.435,100z"/>
  <g>
    <g id="XMLID_5_">
      <path fill="#94CBBB" d="M170.435,100c3.75,3.75,6.5,56.5-3.29,56.5c-0.18-0.9-0.39-1.77-0.64-2.61
        c-2.45-8.43-8.11-14.1-15.53-17.89c-5.25-2.7-11.39-4.46-17.91-5.6c-4.65-0.81-9.49-1.31-14.33-1.6
        c-6.15-0.38-12.31-0.44-18.08-0.41c-4.93,0.02-9.58,0.11-13.72,0.11s-8.79-0.09-13.72-0.11c-5.77-0.03-11.93,0.03-18.08,0.41
        c-4.84,0.29-9.68,0.79-14.33,1.6c-6.52,1.14-12.66,2.9-17.91,5.6c-7.42,3.79-13.08,9.46-15.53,17.89
        c-0.25,0.841-0.46,1.71-0.64,2.61c-9.79,0-7.04-52.75-3.29-56.5c4.09-2.56,8.35-4.74,12.87-6.58c0.52-1.67,1.06-3.28,1.62-4.85
        h0.01c35.6-9.77,84.09-15,138,0h0.01c0.56,1.56,1.1,3.18,1.62,4.85C162.085,95.26,166.345,97.44,170.435,100z"/>
      <path fill="#9CD6C4" d="M114.315,44.68c15.47,5.34,32.03,17.31,41.62,43.89c-53.91-15-102.4-9.77-138,0
        c9.57-26.51,26.06-38.5,41.5-43.85c12.87,12.86,34.32,25.24,54.86,0L114.315,44.68z"/>
      <path fill="#94CBBB" d="M114.315,44.68l-0.02,0.04c-20.54,25.24-41.99,12.86-54.86,0c1.66-0.58,3.31-1.08,4.93-1.51
        c-3.11-4.45-4.93-9.86-4.93-15.71c0-15.19,12.31-27.5,27.5-27.5s27.5,12.31,27.5,27.5c0,5.85-1.82,11.26-4.93,15.71
        C111.085,43.63,112.695,44.12,114.315,44.68z"/>
    </g>
  </g>
  <path fill="#7FBB7E" d="M109.505,43.21C104.545,50.34,96.285,55,86.935,55s-17.61-4.66-22.57-11.79
    c-3.11-4.45-4.93-9.86-4.93-15.71c0-15.19,12.31-27.5,27.5-27.5s27.5,12.31,27.5,27.5C114.435,33.35,112.615,38.76,109.505,43.21z"
    />
  <g>
    <g id="XMLID_4_">
      <path fill="#79B278" d="M113.995,32.39c-0.7,3.97-2.27,7.64-4.49,10.82C104.545,50.34,96.285,55,86.935,55
        s-17.61-4.66-22.57-11.79c-1.46-2.1-2.65-4.41-3.48-6.88C73.435,48.88,98.445,56.67,113.995,32.39z"/>
      <path fill="#8CC086" d="M86.935,0c8.89,0,16.8,4.22,21.82,10.76h-0.01c-24.3-13.23-44.7,1.54-47.85,7.89
        C64.575,7.8,74.845,0,86.935,0z"/>
    </g>
  </g>
  <path fill="#7FBB7E" d="M157.565,93.42c4.52,1.84,8.78,4.02,12.87,6.58c3.75,3.75,6.5,56.5-3.29,56.5
    c-0.18-0.9-0.39-1.77-0.64-2.61c-2.45-8.43-8.11-14.1-15.53-17.89c-5.25-2.7-11.39-4.46-17.91-5.6c-4.65-0.81-9.49-1.31-14.33-1.6
    c-6.15-0.38-12.31-0.44-18.08-0.41c-4.93,0.02-9.58,0.11-13.72,0.11s-8.79-0.09-13.72-0.11c-5.77-0.03-11.93,0.03-18.08,0.41
    c-4.84,0.29-9.68,0.79-14.33,1.6c-6.52,1.14-12.66,2.9-17.91,5.6c-7.42,3.79-13.08,9.46-15.53,17.89
    c-0.25,0.841-0.46,1.71-0.64,2.61c-9.79,0-7.04-52.75-3.29-56.5c4.09-2.56,8.35-4.74,12.87-6.58c17.59-7.21,39.21-9.42,70.63-9.42
    S139.975,86.21,157.565,93.42z"/>
  <g>
    <g id="XMLID_3_">
      <path fill="#8CC086" d="M170.435,100c0.96,0.96,1.86,5.16,2.49,10.87c-7.49-7.49-22.42-19.85-85.99-19.85
        c-61.61,0-84.67,13.75-86.05,20.35c0.64-5.96,1.56-10.38,2.55-11.37c4.09-2.56,8.35-4.74,12.87-6.58
        c17.59-7.21,39.21-9.42,70.63-9.42s53.04,2.21,70.63,9.42C162.085,95.26,166.345,97.44,170.435,100z"/>
      <path fill="#79B278" d="M164.145,138.5c4.77,4.77,9.7-2.26,9.72-9.67c0,13.95-1.73,27.67-6.72,27.67
        c-0.18-0.9-0.39-1.77-0.64-2.61c-2.45-8.43-8.11-14.1-15.53-17.89c-5.25-2.7-11.39-4.46-17.91-5.6
        c-4.65-0.81-9.49-1.31-14.33-1.6c-6.15-0.38-12.31-0.44-18.08-0.41c-4.93,0.02-9.58,0.11-13.72,0.11s-8.79-0.09-13.72-0.11
        c-5.77-0.03-11.93,0.03-18.08,0.41c-4.84,0.29-9.68,0.79-14.33,1.6c-6.52,1.14-12.66,2.9-17.91,5.6
        c-7.42,3.79-13.08,9.46-15.53,17.89c-0.25,0.841-0.46,1.71-0.64,2.61c-4.88,0-6.64-13.12-6.72-26.75
        c0.16,5.08,5.21,13.44,9.9,8.75c4.72-4.72,18.52-16.34,76.96-16.34S159.275,133.63,164.145,138.5z"/>
    </g>
  </g>
  <path fill="#FAF3E6" d="M55.135,128.8c-4.84,0.29-9.68,0.79-14.33,1.6c-6.52,1.14-12.66,2.9-17.91,5.6
    c-0.03,0.49-0.04,0.98-0.04,1.48c0,14.36,11.64,26,26,26s26-11.641,26-26c0-3.2-0.58-6.26-1.64-9.09
    C67.445,128.36,61.285,128.42,55.135,128.8z"/>
  <path fill="#FAF3E6" d="M150.975,136c-5.25-2.7-11.39-4.46-17.91-5.6c-4.65-0.81-9.49-1.31-14.33-1.6
    c-6.15-0.38-12.31-0.44-18.08-0.41c-1.06,2.83-1.64,5.89-1.64,9.09c0,14.36,11.64,26,26,26s26-11.641,26-26
    C151.015,136.98,151.005,136.49,150.975,136z"/>
  <path fill="#5B5221" d="M55.135,128.8c2.69,1.94,4.44,5.1,4.44,8.68c0,5.92-4.8,10.72-10.72,10.72s-10.72-4.8-10.72-10.72
    c0-2.71,1.01-5.19,2.67-7.08C45.455,129.59,50.295,129.09,55.135,128.8z"/>
  <path fill="#5B5221" d="M133.065,130.4c1.66,1.89,2.67,4.37,2.67,7.08c0,5.92-4.8,10.72-10.72,10.72s-10.72-4.8-10.72-10.72
    c0-3.58,1.75-6.74,4.44-8.68C123.575,129.09,128.415,129.59,133.065,130.4z"/>
  <g>
    <g id="XMLID_1_">
      <path fill="#554C1D" d="M55.135,128.8c2.02,1.46,3.51,3.61,4.12,6.1c-8.44,0.63-15.35,1.57-21.12,2.78c0-0.07,0-0.13,0-0.2
        c0-2.71,1.01-5.19,2.67-7.08C45.455,129.59,50.295,129.09,55.135,128.8z"/>
      <path fill="#554C1D" d="M133.065,130.4c1.66,1.89,2.67,4.37,2.67,7.08c0,0.08,0,0.16,0,0.24c-5.67-1.26-12.52-2.23-21.12-2.85
        c0.62-2.48,2.11-4.62,4.12-6.07C123.575,129.09,128.415,129.59,133.065,130.4z"/>
      <path fill="#EFEDC8" d="M40.805,130.4c-1.66,1.89-2.67,4.37-2.67,7.08c0,0.07,0,0.13,0,0.2c-6.05,1.28-10.84,2.85-14.82,4.65
        c-0.3-1.57-0.46-3.19-0.46-4.85c0-0.5,0.01-0.99,0.04-1.48C28.145,133.3,34.285,131.54,40.805,130.4z"/>
      <path fill="#EFEDC8" d="M73.215,128.39c0.69,1.84,1.17,3.77,1.42,5.77c-5.63,0.14-10.74,0.39-15.38,0.74
        c-0.61-2.49-2.1-4.64-4.12-6.1C61.285,128.42,67.445,128.36,73.215,128.39z"/>
      <path fill="#EFEDC8" d="M100.655,128.39c5.77-0.03,11.93,0.03,18.08,0.41c-2.01,1.45-3.5,3.59-4.12,6.07
        c-4.6-0.34-9.7-0.58-15.38-0.72C99.485,132.15,99.965,130.22,100.655,128.39z"/>
      <path fill="#EFEDC8" d="M150.975,136c0.03,0.49,0.04,0.98,0.04,1.48c0,1.81-0.18,3.58-0.54,5.28c-4.01-1.99-8.7-3.69-14.74-5.04
        c0-0.08,0-0.16,0-0.24c0-2.71-1.01-5.19-2.67-7.08C139.585,131.54,145.725,133.3,150.975,136z"/>
      <path fill="#D1C283" d="M150.975,136c7.42,3.79,13.08,9.46,15.53,17.89c-5.36-4.319-9.9-8.08-16.03-11.13
        c0.36-1.7,0.54-3.47,0.54-5.28C151.015,136.98,151.005,136.49,150.975,136z"/>
      <path fill="#D1C283" d="M86.935,128.5c4.14,0,8.79-0.09,13.72-0.11c-0.69,1.83-1.17,3.76-1.42,5.76
        c-3.85-0.09-7.96-0.14-12.37-0.14c-4.33,0-8.4,0.05-12.23,0.15c-0.25-2-0.73-3.93-1.42-5.77
        C78.145,128.41,82.795,128.5,86.935,128.5z"/>
      <path fill="#D1C283" d="M22.855,137.48c0,1.66,0.16,3.28,0.46,4.85c-7.06,3.21-11.55,7.16-15.95,11.56
        c2.45-8.43,8.11-14.1,15.53-17.89C22.865,136.49,22.855,136.98,22.855,137.48z"/>
    </g>
  </g>
  <path fill="#E95846" d="M101.265,155h-14.33h-14.33c-0.648,0-1.22,0.413-1.424,1.028c-0.204,0.614,0.008,1.288,0.528,1.675
    l14.33,10.67c0.531,0.395,1.261,0.395,1.792,0l14.33-10.67c0.52-0.387,0.731-1.061,0.528-1.675
    C102.485,155.413,101.913,155,101.265,155z"/>
</g>
<g>
  <path fill="#BC9345" d="M339.954,134.085c0-57,3.5-106.5,0-106.5s-9,3-18.5,18s-28.5,13-60.5,13s-51,2-60.5-13s-15-18-18.5-18
    s0,49.5,0,106.5c0,2.88-0.04,5.89-0.09,9.01c-0.54,29.88-2.91,70.01,6.53,102.21c9.09,31.08,29.19,54.78,72.56,54.78
    s63.47-23.7,72.57-54.78c9.43-32.2,7.06-72.33,6.52-102.21C339.994,139.975,339.954,136.965,339.954,134.085z"/>
  <path fill="#B78F43" d="M325.624,264.875c-11.36,20.93-31,35.21-64.67,35.21s-53.32-14.29-64.67-35.22
    C223.124,287.915,274.804,310.475,325.624,264.875z"/>
  <path fill="#DBCB89" d="M339.954,27.585c-3.5,0-9,3-18.5,18s-28.5,13-60.5,13s-51,2-60.5-13s-15-18-18.5-18s0,49.5,0,106.5
    c0,2.88-0.04,5.89-0.09,9.01c7.68,7.68,32.66,15.41,58.61,18.3c6.86,0.771,13.79,1.2,20.48,1.2c6.69,0,13.62-0.43,20.48-1.2
    c25.949-2.89,50.93-10.62,58.609-18.3c-0.05-3.12-0.09-6.13-0.09-9.01C339.954,77.085,343.454,27.585,339.954,27.585z"/>
  <path fill="#DFD095" d="M339.954,27.585c1.84,0,1.75,13.69,1.25,34.96c-0.96-4.49-3.83-17.29-5.75-17.29c-2.33,0-12.33,6.33-17,15
    c-4.67,8.66-43,5.33-57.5,5.33c-14.5,0-33.5,1.67-50.12-3c-16.61-4.67-18.71-19.33-22.38-19.33c-3.22,0-6.99,5.63-7.87,13.98
    c-0.38-18.21-0.31-29.65,1.37-29.65c3.5,0,9,3,18.5,18s28.5,13,60.5,13s51,2,60.5-13S336.454,27.585,339.954,27.585z"/>
  <g>
    <path fill="#D6A64F" d="M340.044,143.095c0.54,29.88,2.91,70.01-6.52,102.21c-21.94-11.279-52.09-52.22-52.09-83.91
      C307.384,158.505,332.364,150.775,340.044,143.095z"/>
    <path fill="#D6A64F" d="M240.474,161.395c0,31.69-30.15,72.631-52.08,83.91c-9.44-32.2-7.07-72.33-6.53-102.21
      C189.544,150.775,214.524,158.505,240.474,161.395z"/>
  </g>
  <g>
    <circle fill="#FAF3E6" cx="218.754" cy="114.265" r="26"/>
    <circle fill="#FAF3E6" cx="303.154" cy="114.265" r="26"/>
  </g>
  <g id="XMLID_6_">
    <path fill="#CEA04C" d="M181.864,143.095c7.68,7.68,32.66,15.41,58.61,18.3c0,3.32-0.33,6.75-0.95,10.23
      c-24.67-2.64-45.04-10.17-57.87-18.94C181.734,149.385,181.804,146.185,181.864,143.095z"/>
    <path fill="#CEA04C" d="M340.044,143.095c0.061,3.57,0.16,7.29,0.25,11.12c-19.84,9.23-39.47,14.521-58,16.89
      c-0.56-3.3-0.859-6.55-0.859-9.71C307.384,158.505,332.364,150.775,340.044,143.095z"/>
    <path fill="#B78F43" d="M239.524,171.625c3.34,0.36,6.76,0.63,10.25,0.8c-8.56,49.34-42.39,76.79-58.54,81.37
      c-1.05-2.75-1.99-5.59-2.84-8.49C208.024,235.205,234.244,201.345,239.524,171.625z"/>
    <path fill="#B78F43" d="M282.294,171.105c5.061,29.841,31.48,64.04,51.23,74.2c-1.021,3.48-2.17,6.86-3.49,10.13
      c-40.23-20.609-54.64-57.359-57.51-83.33C275.744,171.865,278.994,171.535,282.294,171.105z"/>
    <path fill="#B78F43" d="M281.434,161.395c0,3.16,0.3,6.41,0.859,9.71c-3.3,0.431-6.55,0.761-9.77,1
      c-0.38-3.51-0.56-6.819-0.56-9.869v-0.011C275.114,162.035,278.284,161.745,281.434,161.395z"/>
    <path fill="#B78F43" d="M251.124,162.305c-0.33,3.471-0.79,6.84-1.35,10.12c-3.49-0.17-6.91-0.439-10.25-0.8
      c0.62-3.48,0.95-6.91,0.95-10.23C244.024,161.795,247.584,162.105,251.124,162.305z"/>
    <path fill="#B78F43" d="M271.964,162.235c0,3.05,0.18,6.359,0.56,9.869c-7.85,0.591-15.45,0.671-22.75,0.32
      c0.56-3.28,1.02-6.649,1.35-10.12c3.31,0.19,6.6,0.29,9.83,0.29C264.574,162.595,268.254,162.465,271.964,162.235z"/>
  </g>
  <circle fill="#5B5221" cx="227.754" cy="118.265" r="10.72"/>
  <circle fill="#5B5221" cx="312.154" cy="118.265" r="10.72"/>
  <path fill="#E95846" d="M273.454,123.485h-12.5h-12.5c-0.579,0-1.107,0.334-1.355,0.857s-0.172,1.145,0.194,1.592l12.5,15.28
    c0.285,0.349,0.711,0.55,1.161,0.55s0.876-0.202,1.161-0.55l12.5-15.28c0.366-0.448,0.442-1.069,0.194-1.592
    S274.033,123.485,273.454,123.485z"/>
</g>
<g>
  <path fill="#E5AEA9" d="M535.403,165.171c-0.11-1.81-0.22-3.55-0.34-5.22c-3-42.08-9.5-106.08-22-106.08c-12.5,0-13,31.5-21,34.5
    s-37.97,5.89-48,6c-28.5,0.29-54.25,2.75-57,0s-23-29-29.5-29s-10.5,47.5-2.5,102.5c0.109,0.73,0.21,1.46,0.319,2.19h0.011
    c8.16,54.899,26.71,132.22,104.17,125.81C534.943,289.631,537.943,208.841,535.403,165.171z"/>
  <path fill="#E8B7B3" d="M513.063,53.871c-12.5,0-13,31.5-21,34.5s-37.97,5.89-48,6c-28.5,0.29-54.25,2.75-57,0s-23-29-29.5-29
    c-3.46,0-6.21,13.43-6.82,34.28c4.44-14.17,7.771-27.14,15.04-16.91c7.33,10.33,14.13,23,28.23,23c14.1,0,78.659-3.67,91.05-7
    c12.38-3.33,17.72-8.33,21.05-19.67c3.33-11.33,13.62-11.3,20.31,5.35C523.013,66.591,518.633,53.871,513.063,53.871z"/>
  <path fill="#FAF3E6" d="M420.013,142.121c0,14.36-11.641,26-26,26c-14.36,0-26-11.64-26-26s11.64-26,26-26
    S420.013,127.761,420.013,142.121z M492.063,111.091c-14.36,0-26,11.64-26,26s11.64,26,26,26c14.35,0,26-11.64,26-26
    S506.413,111.091,492.063,111.091z"/>
  <path fill="#DBCB89" d="M535.403,165.171c2.54,43.67-0.46,124.46-75.84,130.7c-77.46,6.41-96.01-70.91-104.17-125.81
    c38.18,22.81,111.35,31.42,180-4.891L535.403,165.171L535.403,165.171z"/>
  <g>
    <g id="XMLID_7_">
      <path fill="#D1C283" d="M528.113,240.511c-9.33,28.24-28.96,52.08-68.55,55.36c-41.141,3.4-65.67-16.81-80.84-44.75
        c32.069,25.29,56.29,37.95,80.34,36.29C483.103,285.741,507.473,278.551,528.113,240.511z"/>
      <path fill="#D1C283" d="M535.403,165.171c0.16,2.73,0.3,5.61,0.39,8.61c-54.65,34.34-145.68,28.63-178.69,7.08
        c-0.62-3.68-1.19-7.28-1.71-10.8c38.18,22.81,111.35,31.42,180-4.891L535.403,165.171L535.403,165.171z"/>
    </g>
  </g>
  <path fill="#5B5221" d="M387.013,127.401c5.92,0,10.72,4.8,10.72,10.72s-4.8,10.72-10.72,10.72s-10.721-4.8-10.721-10.72
    S381.093,127.401,387.013,127.401z M474.333,133.091c0,5.92,4.811,10.72,10.73,10.72s10.72-4.8,10.72-10.72
    c0-5.92-4.8-10.72-10.72-10.72S474.333,127.171,474.333,133.091z"/>
  <path fill="#E95846" d="M458.846,149.054c-0.303-0.499-0.863-0.776-1.443-0.714l-28,3.01c-0.552,0.059-1.024,0.417-1.231,0.933
    c-0.207,0.515-0.113,1.1,0.244,1.524l14.5,17.221c0.304,0.36,0.761,0.558,1.23,0.532c0.471-0.026,0.903-0.273,1.165-0.665
    l13.5-20.231C459.134,150.178,459.148,149.553,458.846,149.054z"/>
</g>
</svg>
